999
The file was created in CADSoftTools software
999
ABViewer 14; 
  0
SECTION
  2
HEADER
  9
$ACADVER
  1
AC1018
  9
$DWGCODEPAGE
  3
ANSI_1252
  9
$CLAYER
  8
0
  9
$CELTYPE
  6
BYLAYER
  9
$CELTSCALE
 40
1
  9
$CELWEIGHT
370
-1
  9
$DIMALT
 70
0
  9
$DIMALTF
 40
1
  9
$DIMPOST
  1

  9
$DIMAPOST
  1

  9
$DIMSCALE
 40
1
  9
$DIMASZ
 40
0.18
  9
$DIMCLRD
 70
0
  9
$DIMCLRE
 70
0
  9
$DIMCLRT
 70
0
  9
$DIMEXE
 40
0.18
  9
$DIMEXO
 40
0.0625
  9
$DIMGAP
 40
0.0625
  9
$DIMLFAC
 40
1
  9
$DIMDEC
 70
4
  9
$DIMTAD
 70
0
  9
$DIMCEN
 40
0.09
  9
$DIMTIH
 70
1
  9
$DIMTIX
 70
0
  9
$DIMTOH
 70
1
  9
$DIMSE1
 70
0
  9
$DIMSE2
 70
0
  9
$DIMSD1
 70
0
  9
$DIMSD2
 70
0
  9
$DIMLWD
 70
-1
  9
$DIMLWE
 70
-1
  9
$DIMSAH
 70
0
  9
$DIMBLK
  1

  9
$DIMBLK1
  1

  9
$DIMBLK2
  1

  9
$DIMLDRBLK
  1

  9
$DIMSTYLE
  2
STANDARD
  9
$DIMTP
 40
0
  9
$DIMTM
 40
0
  9
$DIMTXT
 40
0.18
  9
$DIMLUNIT
 70
2
  9
$DIMDSEP
 70
46
  9
$DIMTXSTY
  7
STANDARD
  9
$TEXTSIZE
 40
0.18
  9
$TEXTSTYLE
  7
STANDARD
  9
$HANDSEED
  5
0000000000001A3E
  9
$FILLETRAD
 40
0.5
  9
$INSUNITS
 70
4
  9
$LIMMIN
 10
160.318364421285
 20
118.041348079311
  9
$LIMMAX
 10
185.917367077255
 20
132.64038325737
  9
$FILLMODE
 70
1
  9
$LTSCALE
 40
1
  9
$MEASUREMENT
 70
0
  9
$ATTMODE
 70
1
  9
$PDMODE
 70
0
  9
$PDSIZE
 40
0
  9
$TILEMODE
 70
1
  9
$UCSORG
 10
0
 20
0
 30
0
  9
$UCSXDIR
 10
1
 20
0
 30
0
  9
$UCSYDIR
 10
0
 20
1
 30
0
  9
$INSBASE
 10
0
 20
0
 30
0
  9
$XCLIPFRAME
290
1
  9
$DIMASSOC
280
2
  9
$TDCREATE
 40
2460196.03262373
  9
$TDINDWG
 40
9.28240740740741E-6
  9
$TDUPDATE
 40
2460196.03544009
  0
ENDSEC
  0
SECTION
  2
CLASSES
  0
CLASS
  1
IMAGE
  2
AcDbRasterImage
  3
ISM
 90
2175
 91
1
280
0
281
1
  0
CLASS
  1
IMAGEDEF
  2
AcDbRasterImageDef
  3
ISM
 90
0
 91
1
280
0
281
0
  0
CLASS
  1
WIPEOUT
  2
AcDbWipeout
  3
"WipeOut"
 90
2175
 91
1
280
0
281
1
  0
CLASS
  1
WIPEOUTVARIABLES
  2
AcDbWipeoutVariables
  3
"WipeOut"
 90
0
 91
1
280
0
281
0
  0
CLASS
  1
MPOLYGON
  2
AcDbMPolygon
  3
"AcMPolygonObj15"
 90
3071
 91
1
280
0
281
1
  0
ENDSEC
  0
SECTION
  2
TABLES
  0
TABLE
  2
APPID
  5
1A26
100
AcDbSymbolTable
  0
APPID
  5
1419
100
AcDbSymbolTableRecord
100
AcDbRegAppTableRecord
  2
ACAD
 70
64
  0
APPID
  5
141A
100
AcDbSymbolTableRecord
100
AcDbRegAppTableRecord
  2
AcDbAttr
 70
64
  0
APPID
  5
141B
100
AcDbSymbolTableRecord
100
AcDbRegAppTableRecord
  2
PE_URL
 70
64
  0
APPID
  5
15AD
100
AcDbSymbolTableRecord
100
AcDbRegAppTableRecord
  2
CSTINVENTORY
 70
0
  0
ENDTAB
  0
TABLE
  2
BLOCK_RECORD
  5
1A27
100
AcDbSymbolTable
  0
BLOCK_RECORD
  5
5
100
AcDbSymbolTableRecord
100
AcDbBlockTableRecord
  2
*MODEL_SPACE
  0
BLOCK_RECORD
  5
141D
100
AcDbSymbolTableRecord
100
AcDbBlockTableRecord
  2
*PAPER_SPACE
  0
BLOCK_RECORD
  5
12
100
AcDbSymbolTableRecord
100
AcDbBlockTableRecord
  2
_CLOSEDFILLED
  0
BLOCK_RECORD
  5
15B5
100
AcDbSymbolTableRecord
100
AcDbBlockTableRecord
  2
ABViewer_RedLine
  0
ENDTAB
  0
TABLE
  2
STYLE
  5
B
100
AcDbSymbolTable
  0
STYLE
  5
C
100
AcDbSymbolTableRecord
100
AcDbTextStyleTableRecord
  2
STANDARD
 70
0
 40
0
 41
1
 50
0
 71
0
 42
2.5
  3
txt
  4

1001
ACAD
1000

1071
0
  0
ENDTAB
  0
TABLE
  2
LTYPE
  5
7
100
AcDbSymbolTable
  0
LTYPE
  5
A
100
AcDbSymbolTableRecord
100
AcDbLinetypeTableRecord
  2
CONTINUOUS
 70
0
  3

 72
65
 73
0
 40
0
  0
LTYPE
  5
8
100
AcDbSymbolTableRecord
100
AcDbLinetypeTableRecord
  2
BYLAYER
 70
0
  3

 72
65
 73
0
 40
0
  0
LTYPE
  5
9
100
AcDbSymbolTableRecord
100
AcDbLinetypeTableRecord
  2
BYBLOCK
 70
0
  3

 72
65
 73
0
 40
0
  0
LTYPE
  5
15B6
100
AcDbSymbolTableRecord
100
AcDbLinetypeTableRecord
  2
CENTER
 70
0
  3
_ _ 
 72
65
 73
4
 40
2
 49
1.25
 74
0
 49
-0.25
 74
0
 49
0.25
 74
0
 49
-0.25
 74
0
  0
LTYPE
  5
15B7
100
AcDbSymbolTableRecord
100
AcDbLinetypeTableRecord
  2
ISO dash
 70
0
  3
_ 
 72
65
 73
2
 40
1.5
 49
1.2
 74
0
 49
-0.3
 74
0
  0
LTYPE
  5
15B8
100
AcDbSymbolTableRecord
100
AcDbLinetypeTableRecord
  2
ISO dot
 70
0
  3
. 
 72
65
 73
2
 40
0.3
 49
0
 74
0
 49
-0.3
 74
0
  0
LTYPE
  5
15B9
100
AcDbSymbolTableRecord
100
AcDbLinetypeTableRecord
  2
ISO dash dot
 70
0
  3
_ . 
 72
65
 73
4
 40
1.8
 49
1.2
 74
0
 49
-0.3
 74
0
 49
0
 74
0
 49
-0.3
 74
0
  0
LTYPE
  5
15BA
100
AcDbSymbolTableRecord
100
AcDbLinetypeTableRecord
  2
ISO dash double-dot
 70
0
  3
_ . . 
 72
65
 73
6
 40
2.1
 49
1.2
 74
0
 49
-0.3
 74
0
 49
0
 74
0
 49
-0.3
 74
0
 49
0
 74
0
 49
-0.3
 74
0
  0
LTYPE
  5
15BB
100
AcDbSymbolTableRecord
100
AcDbLinetypeTableRecord
  2
ISO dash triple-dot
 70
0
  3
_ . . . 
 72
65
 73
8
 40
2.4
 49
1.2
 74
0
 49
-0.3
 74
0
 49
0
 74
0
 49
-0.3
 74
0
 49
0
 74
0
 49
-0.3
 74
0
 49
0
 74
0
 49
-0.3
 74
0
  0
LTYPE
  5
15BC
100
AcDbSymbolTableRecord
100
AcDbLinetypeTableRecord
  2
ISO dash long gaps
 70
0
  3
_ 
 72
65
 73
2
 40
3
 49
1.2
 74
0
 49
-1.8
 74
0
  0
ENDTAB
  0
TABLE
  2
LAYER
  5
1
100
AcDbSymbolTable
  0
LAYER
  5
2
100
AcDbSymbolTableRecord
100
AcDbLayerTableRecord
  2
0
 70
0
 62
7
  6
CONTINUOUS
290
1
370
-3
390
0
  0
ENDTAB
  0
TABLE
  2
VPORT
  5
1A28
100
AcDbSymbolTable
  0
VPORT
  5
1A2A
100
AcDbSymbolTableRecord
100
AcDbViewportTableRecord
  2
*ACTIVE
 70
0
 10
0
 20
0
 11
1
 21
1
 12
173.11786574927
 22
125.34086566834
 32
0
 13
0
 23
0
 14
1
 24
1
 15
1
 25
1
 16
0
 26
0
 36
1
 17
0
 27
0
 37
0
 40
14.6166032107635
 41
1.98317307692308
 42
50
 43
0
 44
0
 50
0
 51
0
 71
0
 72
100
 73
1
 74
1
 75
0
 76
0
 77
0
 78
0
  0
ENDTAB
  0
TABLE
  2
VIEW
  5
1A2B
100
AcDbSymbolTable
  0
ENDTAB
  0
TABLE
  2
UCS
  5
1A2C
100
AcDbSymbolTable
  0
ENDTAB
  0
TABLE
  2
DIMSTYLE
  5
D
100
AcDbSymbolTable
 70
1
100
AcDbDimStyleTable
 71
0
  0
DIMSTYLE
105
E
100
AcDbSymbolTableRecord
100
AcDbDimStyleTableRecord
  2
STANDARD
 70
0
  3

 40
1
 41
0.18
 42
0.0625
 44
0.18
 47
0
 48
0
 73
1
 74
1
 75
0
 76
0
 77
0
140
0.18
141
0.09
144
1
147
0.0625
173
0
174
0
176
0
177
0
178
0
277
2
278
46
281
0
282
0
271
4
340
C
371
-1
372
-1
  0
ENDTAB
  0
ENDSEC
  0
SECTION
  2
BLOCKS
  0
BLOCK
  5
1A2D
100
AcDbEntity
  8
0
100
AcDbBlockBegin
  2
*MODEL_SPACE
 70
0
 10
0
 20
0
  0
ENDBLK
  5
1A2E
100
AcDbEntity
  8
0
100
AcDbBlockEnd
  0
BLOCK
  5
1A2F
100
AcDbEntity
  8
0
100
AcDbBlockBegin
  2
*PAPER_SPACE
 70
0
 10
0
 20
0
  0
ENDBLK
  5
1A30
100
AcDbEntity
  8
0
100
AcDbBlockEnd
  0
BLOCK
  5
11
100
AcDbEntity
  8
0
100
AcDbBlockBegin
  2
_CLOSEDFILLED
 70
0
 10
0
 20
0
 30
0
  3
_CLOSEDFILLED
  1

  0
SOLID
  5
F
100
AcDbEntity
  8
0
100
AcDbTrace
370
-2
 62
0
  6
BYLAYER
 10
-1
 20
0.166666666666667
 30
0
 11
0
 21
0
 31
0
 12
-1
 22
0.166666666666667
 32
0
 13
-1
 23
-0.166666666666667
 33
0
  0
LINE
  5
10
100
AcDbEntity
  8
0
100
AcDbLine
370
-2
 62
0
  6
BYLAYER
 10
-1
 20
0
 30
0
 11
-2
 21
0
 31
0
  0
ENDBLK
  5
1A31
100
AcDbEntity
  8
0
100
AcDbBlockEnd
  0
BLOCK
  5
15B4
100
AcDbEntity
  8
0
100
AcDbBlockBegin
  2
ABViewer_RedLine
 70
0
 10
0
 20
0
 30
0
  3
ABViewer_RedLine
  1

  0
ENDBLK
  5
1A32
100
AcDbEntity
  8
0
100
AcDbBlockEnd
  0
ENDSEC
  0
SECTION
  2
ENTITIES
  0
LWPOLYLINE
  5
DF5
100
AcDbEntity
  8
0
100
AcDbPolyline
370
20
 62
7
  6
CONTINUOUS
 38
0
 90
3
 70
0
 10
162.329111164559
 20
132.64038325737
 10
183.923517365437
 20
132.64038325737
 10
183.923517365437
 20
132.64038325737
  0
LWPOLYLINE
  5
DF9
100
AcDbEntity
  8
0
100
AcDbPolyline
370
20
 62
7
  6
CONTINUOUS
 38
0
 90
3
 70
0
 10
185.917367077255
 20
130.629636514095
 10
185.917367077255
 20
119.933815602393
 10
185.917367077255
 20
119.933815602393
  0
SPLINE
  5
DFD
100
AcDbEntity
  8
0
100
AcDbSpline
370
20
 62
7
  6
CONTINUOUS
 70
0
 71
3
 72
8
 73
4
 40
0
 40
0
 40
0
 40
0
 40
1
 40
1
 40
1
 40
1
 10
185.731499731238
 20
119.73105122492
 30
0
 10
185.832881919974
 20
119.73105122492
 30
0
 10
185.917367077255
 20
119.832433413656
 30
0
 10
185.917367077255
 20
119.933815602393
 30
0
  0
SPLINE
  5
DFE
100
AcDbEntity
  8
0
100
AcDbSpline
370
20
 62
7
  6
CONTINUOUS
 70
0
 71
3
 72
8
 73
4
 40
0
 40
0
 40
0
 40
0
 40
1
 40
1
 40
1
 40
1
 10
185.917367077255
 20
130.629636514095
 30
0
 10
185.917367077255
 20
131.744840590197
 30
0
 10
185.021824410082
 20
132.64038325737
 30
0
 10
183.923517365437
 20
132.64038325737
 30
0
  0
LWPOLYLINE
  5
DFF
100
AcDbEntity
  8
0
100
AcDbPolyline
370
20
 62
7
  6
CONTINUOUS
 38
0
 90
3
 70
0
 10
162.616360699312
 20
119.73105122492
 10
162.075655692718
 20
119.73105122492
 10
162.075655692718
 20
119.73105122492
  0
LWPOLYLINE
  5
E03
100
AcDbEntity
  8
0
100
AcDbPolyline
370
20
 62
7
  6
CONTINUOUS
 38
0
 90
3
 70
0
 10
161.078730836808
 20
119.73105122492
 10
160.521128798758
 20
119.73105122492
 10
160.521128798758
 20
119.73105122492
  0
LWPOLYLINE
  5
E07
100
AcDbEntity
  8
0
100
AcDbPolyline
370
20
 62
7
  6
CONTINUOUS
 38
0
 90
3
 70
0
 10
160.318364421285
 20
119.933815602393
 10
160.318364421285
 20
130.629636514095
 10
160.318364421285
 20
130.629636514095
  0
SPLINE
  5
E0B
100
AcDbEntity
  8
0
100
AcDbSpline
370
20
 62
7
  6
CONTINUOUS
 70
0
 71
3
 72
8
 73
4
 40
0
 40
0
 40
0
 40
0
 40
1
 40
1
 40
1
 40
1
 10
160.318364421285
 20
119.933815602393
 30
0
 10
160.318364421285
 20
119.832433413656
 30
0
 10
160.419746610021
 20
119.73105122492
 30
0
 10
160.521128798758
 20
119.73105122492
 30
0
  0
SPLINE
  5
E0C
100
AcDbEntity
  8
0
100
AcDbSpline
370
20
 62
7
  6
CONTINUOUS
 70
0
 71
3
 72
8
 73
4
 40
0
 40
0
 40
0
 40
0
 40
1
 40
1
 40
1
 40
1
 10
162.329111164559
 20
132.64038325737
 30
0
 10
161.213907088457
 20
132.64038325737
 30
0
 10
160.318364421285
 20
131.744840590197
 30
0
 10
160.318364421285
 20
130.629636514095
 30
0
  0
LWPOLYLINE
  5
E0D
100
AcDbEntity
  8
0
100
AcDbPolyline
370
20
 62
7
  6
CONTINUOUS
 38
0
 90
3
 70
0
 10
165.455061983935
 20
130.088931507501
 10
166.722339343141
 20
130.088931507501
 10
166.722339343141
 20
130.088931507501
  0
LWPOLYLINE
  5
E11
100
AcDbEntity
  8
0
100
AcDbPolyline
370
20
 62
7
  6
CONTINUOUS
 38
0
 90
3
 70
0
 10
168.378248425838
 20
130.088931507501
 10
177.874380104158
 20
130.088931507501
 10
177.874380104158
 20
130.088931507501
  0
LWPOLYLINE
  5
E15
100
AcDbEntity
  8
0
100
AcDbPolyline
370
20
 62
7
  6
CONTINUOUS
 38
0
 90
3
 70
0
 10
179.530289186854
 20
130.088931507501
 10
180.797566546061
 20
130.088931507501
 10
180.797566546061
 20
130.088931507501
  0
LWPOLYLINE
  5
E19
100
AcDbEntity
  8
0
100
AcDbPolyline
370
20
 62
7
  6
CONTINUOUS
 38
0
 90
3
 70
0
 10
162.819125076785
 20
119.933815602393
 10
162.819125076785
 20
127.148848034142
 10
162.819125076785
 20
127.148848034142
  0
SPLINE
  5
E1D
100
AcDbEntity
  8
0
100
AcDbSpline
370
20
 62
7
  6
CONTINUOUS
 70
0
 71
3
 72
8
 73
4
 40
0
 40
0
 40
0
 40
0
 40
1
 40
1
 40
1
 40
1
 10
162.616360699312
 20
119.73105122492
 30
0
 10
162.734639919505
 20
119.73105122492
 30
0
 10
162.819125076785
 20
119.832433413656
 30
0
 10
162.819125076785
 20
119.933815602393
 30
0
  0
LWPOLYLINE
  5
E1E
100
AcDbEntity
  8
0
100
AcDbPolyline
370
20
 62
7
  6
CONTINUOUS
 38
0
 90
3
 70
0
 10
183.416606421754
 20
127.148848034142
 10
183.416606421754
 20
119.933815602393
 10
183.416606421754
 20
119.933815602393
  0
SPLINE
  5
E22
100
AcDbEntity
  8
0
100
AcDbSpline
370
20
 62
7
  6
CONTINUOUS
 70
0
 71
3
 72
8
 73
4
 40
0
 40
0
 40
0
 40
0
 40
1
 40
1
 40
1
 40
1
 10
183.416606421754
 20
119.933815602393
 30
0
 10
183.416606421754
 20
119.832433413656
 30
0
 10
183.517988610491
 20
119.73105122492
 30
0
 10
183.619370799227
 20
119.73105122492
 30
0
  0
LWPOLYLINE
  5
E23
100
AcDbEntity
  8
0
100
AcDbPolyline
370
20
 62
7
  6
CONTINUOUS
 38
0
 90
3
 70
0
 10
177.874380104158
 20
131.08585636341
 10
179.530289186854
 20
131.08585636341
 10
179.530289186854
 20
130.088931507501
  0
LWPOLYLINE
  5
E27
100
AcDbEntity
  8
0
100
AcDbPolyline
370
20
 62
7
  6
CONTINUOUS
 38
0
 90
3
 70
0
 10
177.874380104158
 20
131.08585636341
 10
177.874380104158
 20
130.088931507501
 10
177.874380104158
 20
130.088931507501
  0
LWPOLYLINE
  5
E2B
100
AcDbEntity
  8
0
100
AcDbPolyline
370
20
 62
7
  6
CONTINUOUS
 38
0
 90
3
 70
0
 10
168.378248425838
 20
131.08585636341
 10
166.722339343141
 20
131.08585636341
 10
166.722339343141
 20
130.088931507501
  0
LWPOLYLINE
  5
E2F
100
AcDbEntity
  8
0
100
AcDbPolyline
370
20
 62
7
  6
CONTINUOUS
 38
0
 90
3
 70
0
 10
168.378248425838
 20
131.08585636341
 10
168.378248425838
 20
130.088931507501
 10
168.378248425838
 20
130.088931507501
  0
LWPOLYLINE
  5
E33
100
AcDbEntity
  8
0
100
AcDbPolyline
370
20
 62
7
  6
CONTINUOUS
 38
0
 90
3
 70
0
 10
161.078730836808
 20
119.73105122492
 10
161.078730836808
 20
118.277906519696
 10
161.078730836808
 20
118.277906519696
  0
SPLINE
  5
E37
100
AcDbEntity
  8
0
100
AcDbSpline
370
20
 62
7
  6
CONTINUOUS
 70
0
 71
3
 72
8
 73
4
 40
0
 40
0
 40
0
 40
0
 40
1
 40
1
 40
1
 40
1
 10
161.078730836808
 20
118.277906519696
 30
0
 10
161.078730836808
 20
118.142730268048
 30
0
 10
161.180113025545
 20
118.041348079311
 30
0
 10
161.33218630865
 20
118.041348079311
 30
0
  0
LWPOLYLINE
  5
E38
100
AcDbEntity
  8
0
100
AcDbPolyline
370
20
 62
7
  6
CONTINUOUS
 38
0
 90
3
 70
0
 10
162.075655692718
 20
119.73105122492
 10
162.075655692718
 20
118.277906519696
 10
162.075655692718
 20
118.277906519696
  0
LWPOLYLINE
  5
E3C
100
AcDbEntity
  8
0
100
AcDbPolyline
370
20
 62
7
  6
CONTINUOUS
 38
0
 90
3
 70
0
 10
161.33218630865
 20
118.041348079311
 10
161.822200220876
 20
118.041348079311
 10
161.822200220876
 20
118.041348079311
  0
SPLINE
  5
E40
100
AcDbEntity
  8
0
100
AcDbSpline
370
20
 62
7
  6
CONTINUOUS
 70
0
 71
3
 72
8
 73
4
 40
0
 40
0
 40
0
 40
0
 40
1
 40
1
 40
1
 40
1
 10
161.822200220876
 20
118.041348079311
 30
0
 10
161.957376472525
 20
118.041348079311
 30
0
 10
162.075655692718
 20
118.142730268048
 30
0
 10
162.075655692718
 20
118.277906519696
 30
0
  0
SPLINE
  5
E41
100
AcDbEntity
  8
0
100
AcDbSpline
370
20
 62
7
  6
CONTINUOUS
 70
0
 71
3
 72
8
 73
4
 40
0
 40
0
 40
0
 40
0
 40
1
 40
1
 40
1
 40
1
 10
180.983433892078
 20
129.835476035659
 30
0
 10
180.898948734797
 20
129.463741343625
 30
0
 10
180.898948734797
 20
129.092006651591
 30
0
 10
181.01722795499
 20
128.720271959558
 30
0
  0
SPLINE
  5
E42
100
AcDbEntity
  8
0
100
AcDbSpline
370
20
 62
7
  6
CONTINUOUS
 70
0
 71
3
 72
12
 73
8
 40
0
 40
0
 40
0
 40
0
 40
0.125
 40
0.125
 40
0.125
 40
0.125
 40
1
 40
1
 40
1
 40
1
 10
181.01722795499
 20
128.720271959558
 30
0
 10
181.051022017902
 20
128.618889770821
 30
0
 10
181.169301238095
 20
128.568198676453
 30
0
 10
181.270683426831
 20
128.601992739365
 30
0
 10
181.270683426831
 20
128.601992739365
 30
0
 10
181.304477489743
 20
128.601992739365
 30
0
 10
181.338271552656
 20
128.618889770821
 30
0
 10
181.355168584112
 20
128.652683833733
 30
0
  0
SPLINE
  5
E43
100
AcDbEntity
  8
0
100
AcDbSpline
370
20
 62
7
  6
CONTINUOUS
 70
0
 71
3
 72
12
 73
8
 40
0
 40
0
 40
0
 40
0
 40
0.125
 40
0.125
 40
0.125
 40
0.125
 40
1
 40
1
 40
1
 40
1
 10
180.983433892078
 20
129.835476035659
 30
0
 10
181.01722795499
 20
129.936858224396
 30
0
 10
180.949639829166
 20
130.055137444588
 30
0
 10
180.848257640429
 20
130.072034476044
 30
0
 10
180.848257640429
 20
130.072034476044
 30
0
 10
180.831360608973
 20
130.088931507501
 30
0
 10
180.814463577517
 20
130.088931507501
 30
0
 10
180.797566546061
 20
130.088931507501
 30
0
  0
SPLINE
  5
E44
100
AcDbEntity
  8
0
100
AcDbSpline
370
20
 62
7
  6
CONTINUOUS
 70
0
 71
3
 72
8
 73
4
 40
0
 40
0
 40
0
 40
0
 40
1
 40
1
 40
1
 40
1
 10
182.504166723126
 20
127.385406474527
 30
0
 10
182.723828132055
 20
127.334715380159
 30
0
 10
182.96038657244
 20
127.317818348702
 30
0
 10
183.196945012825
 20
127.351612411615
 30
0
  0
SPLINE
  5
E45
100
AcDbEntity
  8
0
100
AcDbSpline
370
20
 62
7
  6
CONTINUOUS
 70
0
 71
3
 72
12
 73
8
 40
0
 40
0
 40
0
 40
0
 40
0.125
 40
0.125
 40
0.125
 40
0.125
 40
1
 40
1
 40
1
 40
1
 10
183.416606421754
 20
127.148848034142
 30
0
 10
183.416606421754
 20
127.267127254334
 30
0
 10
183.332121264474
 20
127.351612411615
 30
0
 10
183.230739075737
 20
127.351612411615
 30
0
 10
183.230739075737
 20
127.351612411615
 30
0
 10
183.213842044281
 20
127.351612411615
 30
0
 10
183.213842044281
 20
127.351612411615
 30
0
 10
183.196945012825
 20
127.351612411615
 30
0
  0
SPLINE
  5
E46
100
AcDbEntity
  8
0
100
AcDbSpline
370
20
 62
7
  6
CONTINUOUS
 70
0
 71
3
 72
12
 73
8
 40
0
 40
0
 40
0
 40
0
 40
0.125
 40
0.125
 40
0.125
 40
0.125
 40
1
 40
1
 40
1
 40
1
 10
182.385887502933
 20
127.706450072192
 30
0
 10
182.318299377109
 20
127.621964914912
 30
0
 10
182.318299377109
 20
127.503685694719
 30
0
 10
182.402784534389
 20
127.436097568895
 30
0
 10
182.402784534389
 20
127.436097568895
 30
0
 10
182.436578597301
 20
127.402303505983
 30
0
 10
182.470372660213
 20
127.385406474527
 30
0
 10
182.504166723126
 20
127.385406474527
 30
0
  0
LWPOLYLINE
  5
E47
100
AcDbEntity
  8
0
100
AcDbPolyline
370
20
 62
7
  6
CONTINUOUS
 38
0
 90
3
 70
0
 10
181.743800307602
 20
129.092006651591
 10
181.355168584112
 20
128.652683833733
 10
181.355168584112
 20
128.652683833733
  0
LWPOLYLINE
  5
E4B
100
AcDbEntity
  8
0
100
AcDbPolyline
370
20
 62
7
  6
CONTINUOUS
 38
0
 90
3
 70
0
 10
182.791416257879
 20
128.145772890051
 10
182.385887502933
 20
127.706450072192
 10
182.385887502933
 20
127.706450072192
  0
LWPOLYLINE
  5
E4F
100
AcDbEntity
  8
0
100
AcDbPolyline
370
20
 62
7
  6
CONTINUOUS
 38
0
 90
3
 70
0
 10
183.619370799227
 20
119.73105122492
 10
184.075590648542
 20
119.73105122492
 10
184.075590648542
 20
119.73105122492
  0
LWPOLYLINE
  5
E53
100
AcDbEntity
  8
0
100
AcDbPolyline
370
20
 62
7
  6
CONTINUOUS
 38
0
 90
3
 70
0
 10
185.275279881924
 20
119.73105122492
 10
185.731499731238
 20
119.73105122492
 10
185.731499731238
 20
119.73105122492
  0
LWPOLYLINE
  5
E57
100
AcDbEntity
  8
0
100
AcDbPolyline
370
20
 62
7
  6
CONTINUOUS
 38
0
 90
3
 70
0
 10
185.275279881924
 20
119.73105122492
 10
185.275279881924
 20
121.28557811888
 10
185.275279881924
 20
121.28557811888
  0
SPLINE
  5
E5B
100
AcDbEntity
  8
0
100
AcDbSpline
370
20
 62
7
  6
CONTINUOUS
 70
0
 71
3
 72
8
 73
4
 40
0
 40
0
 40
0
 40
0
 40
1
 40
1
 40
1
 40
1
 10
185.275279881924
 20
121.28557811888
 30
0
 10
185.275279881924
 20
121.420754370528
 30
0
 10
185.157000661731
 20
121.539033590721
 30
0
 10
185.021824410082
 20
121.539033590721
 30
0
  0
LWPOLYLINE
  5
E5C
100
AcDbEntity
  8
0
100
AcDbPolyline
370
20
 62
7
  6
CONTINUOUS
 38
0
 90
3
 70
0
 10
184.075590648542
 20
119.73105122492
 10
184.075590648542
 20
121.28557811888
 10
184.075590648542
 20
121.28557811888
  0
LWPOLYLINE
  5
E60
100
AcDbEntity
  8
0
100
AcDbPolyline
370
20
 62
7
  6
CONTINUOUS
 38
0
 90
3
 70
0
 10
185.021824410082
 20
121.539033590721
 10
184.329046120383
 20
121.539033590721
 10
184.329046120383
 20
121.539033590721
  0
SPLINE
  5
E64
100
AcDbEntity
  8
0
100
AcDbSpline
370
20
 62
7
  6
CONTINUOUS
 70
0
 71
3
 72
8
 73
4
 40
0
 40
0
 40
0
 40
0
 40
1
 40
1
 40
1
 40
1
 10
184.329046120383
 20
121.539033590721
 30
0
 10
184.193869868734
 20
121.539033590721
 30
0
 10
184.075590648542
 20
121.420754370528
 30
0
 10
184.075590648542
 20
121.28557811888
 30
0
  0
SPLINE
  5
E65
100
AcDbEntity
  8
0
100
AcDbSpline
370
20
 62
7
  6
CONTINUOUS
 70
0
 71
3
 72
8
 73
4
 40
0
 40
0
 40
0
 40
0
 40
1
 40
1
 40
1
 40
1
 10
165.235400575006
 20
128.720271959558
 30
0
 10
165.336782763742
 20
129.092006651591
 30
0
 10
165.353679795198
 20
129.463741343625
 30
0
 10
165.269194637918
 20
129.835476035659
 30
0
  0
SPLINE
  5
E66
100
AcDbEntity
  8
0
100
AcDbSpline
370
20
 62
7
  6
CONTINUOUS
 70
0
 71
3
 72
12
 73
8
 40
0
 40
0
 40
0
 40
0
 40
0.125
 40
0.125
 40
0.125
 40
0.125
 40
1
 40
1
 40
1
 40
1
 10
164.897459945884
 20
128.652683833733
 30
0
 10
164.965048071708
 20
128.568198676453
 30
0
 10
165.083327291901
 20
128.568198676453
 30
0
 10
165.167812449181
 20
128.635786802277
 30
0
 10
165.167812449181
 20
128.635786802277
 30
0
 10
165.201606512093
 20
128.669580865189
 30
0
 10
165.21850354355
 20
128.686477896645
 30
0
 10
165.235400575006
 20
128.720271959558
 30
0
  0
SPLINE
  5
E67
100
AcDbEntity
  8
0
100
AcDbSpline
370
20
 62
7
  6
CONTINUOUS
 70
0
 71
3
 72
12
 73
8
 40
0
 40
0
 40
0
 40
0
 40
0.125
 40
0.125
 40
0.125
 40
0.125
 40
1
 40
1
 40
1
 40
1
 10
165.455061983935
 20
130.088931507501
 30
0
 10
165.336782763742
 20
130.088931507501
 30
0
 10
165.252297606462
 20
130.00444635022
 30
0
 10
165.252297606462
 20
129.886167130028
 30
0
 10
165.252297606462
 20
129.886167130028
 30
0
 10
165.252297606462
 20
129.869270098571
 30
0
 10
165.252297606462
 20
129.852373067115
 30
0
 10
165.269194637918
 20
129.835476035659
 30
0
  0
SPLINE
  5
E68
100
AcDbEntity
  8
0
100
AcDbSpline
370
20
 62
7
  6
CONTINUOUS
 70
0
 71
3
 72
8
 73
4
 40
0
 40
0
 40
0
 40
0
 40
1
 40
1
 40
1
 40
1
 10
163.055683517171
 20
127.351612411615
 30
0
 10
163.292241957556
 20
127.317818348702
 30
0
 10
163.511903366485
 20
127.334715380159
 30
0
 10
163.74846180687
 20
127.385406474527
 30
0
  0
SPLINE
  5
E69
100
AcDbEntity
  8
0
100
AcDbSpline
370
20
 62
7
  6
CONTINUOUS
 70
0
 71
3
 72
12
 73
8
 40
0
 40
0
 40
0
 40
0
 40
0.125
 40
0.125
 40
0.125
 40
0.125
 40
1
 40
1
 40
1
 40
1
 10
163.055683517171
 20
127.351612411615
 30
0
 10
162.937404296978
 20
127.368509443071
 30
0
 10
162.836022108241
 20
127.300921317246
 30
0
 10
162.819125076785
 20
127.182642097054
 30
0
 10
162.819125076785
 20
127.182642097054
 30
0
 10
162.819125076785
 20
127.182642097054
 30
0
 10
162.819125076785
 20
127.165745065598
 30
0
 10
162.819125076785
 20
127.148848034142
 30
0
  0
SPLINE
  5
E6A
100
AcDbEntity
  8
0
100
AcDbSpline
370
20
 62
7
  6
CONTINUOUS
 70
0
 71
3
 72
12
 73
8
 40
0
 40
0
 40
0
 40
0
 40
0.125
 40
0.125
 40
0.125
 40
0.125
 40
1
 40
1
 40
1
 40
1
 10
163.74846180687
 20
127.385406474527
 30
0
 10
163.849843995607
 20
127.402303505983
 30
0
 10
163.917432121431
 20
127.503685694719
 30
0
 10
163.900535089975
 20
127.621964914912
 30
0
 10
163.900535089975
 20
127.621964914912
 30
0
 10
163.900535089975
 20
127.655758977824
 30
0
 10
163.883638058519
 20
127.689553040736
 30
0
 10
163.849843995607
 20
127.706450072192
 30
0
  0
LWPOLYLINE
  5
E6B
100
AcDbEntity
  8
0
100
AcDbPolyline
370
20
 62
7
  6
CONTINUOUS
 38
0
 90
3
 70
0
 10
164.491931190938
 20
129.092006651591
 10
164.897459945884
 20
128.652683833733
 10
164.897459945884
 20
128.652683833733
  0
LWPOLYLINE
  5
E6F
100
AcDbEntity
  8
0
100
AcDbPolyline
370
20
 62
7
  6
CONTINUOUS
 38
0
 90
3
 70
0
 10
163.461212272117
 20
128.145772890051
 10
163.849843995607
 20
127.706450072192
 10
163.849843995607
 20
127.706450072192
  0
SPLINE
  5
E73
100
AcDbEntity
  8
0
100
AcDbSpline
370
20
 62
7
  6
CONTINUOUS
 70
0
 71
3
 72
20
 73
16
 40
0
 40
0
 40
0
 40
0
 40
0.0625
 40
0.0625
 40
0.0625
 40
0.0625
 40
0.125
 40
0.125
 40
0.125
 40
0.125
 40
0.1875
 40
0.1875
 40
0.1875
 40
0.1875
 40
1
 40
1
 40
1
 40
1
 10
182.791416257879
 20
128.145772890051
 30
0
 10
183.450400484666
 20
128.06128773277
 30
0
 10
184.041796585629
 20
128.534404613541
 30
0
 10
184.109384711454
 20
129.193388840328
 30
0
 10
184.109384711454
 20
129.193388840328
 30
0
 10
184.193869868734
 20
129.852373067115
 30
0
 10
183.720752987964
 20
130.443769168078
 30
0
 10
183.061768761176
 20
130.528254325359
 30
0
 10
183.061768761176
 20
130.528254325359
 30
0
 10
182.402784534389
 20
130.595842451183
 30
0
 10
181.811388433426
 20
130.139622601869
 30
0
 10
181.726903276146
 20
129.480638375081
 30
0
 10
181.726903276146
 20
129.480638375081
 30
0
 10
181.710006244689
 20
129.345462123433
 30
0
 10
181.726903276146
 20
129.210285871784
 30
0
 10
181.743800307602
 20
129.092006651591
 30
0
  0
SPLINE
  5
E74
100
AcDbEntity
  8
0
100
AcDbSpline
370
20
 62
7
  6
CONTINUOUS
 70
0
 71
3
 72
20
 73
16
 40
0
 40
0
 40
0
 40
0
 40
0.0625
 40
0.0625
 40
0.0625
 40
0.0625
 40
0.125
 40
0.125
 40
0.125
 40
0.125
 40
0.1875
 40
0.1875
 40
0.1875
 40
0.1875
 40
1
 40
1
 40
1
 40
1
 10
164.491931190938
 20
129.092006651591
 30
0
 10
164.644004474043
 20
129.734093846923
 30
0
 10
164.22157868764
 20
130.376181042254
 30
0
 10
163.579491492309
 20
130.511357293903
 30
0
 10
163.579491492309
 20
130.511357293903
 30
0
 10
162.920507265522
 20
130.646533545551
 30
0
 10
162.295317101647
 20
130.241004790605
 30
0
 10
162.143243818542
 20
129.582020563818
 30
0
 10
162.143243818542
 20
129.582020563818
 30
0
 10
162.008067566893
 20
128.939933368487
 30
0
 10
162.430493353295
 20
128.297846173155
 30
0
 10
163.072580548627
 20
128.162669921507
 30
0
 10
163.072580548627
 20
128.162669921507
 30
0
 10
163.207756800275
 20
128.128875858595
 30
0
 10
163.326036020468
 20
128.128875858595
 30
0
 10
163.461212272117
 20
128.145772890051
 30
0
  0
ENDSEC
  0
SECTION
  2
OBJECTS
  0
DICTIONARY
  5
1A33
100
AcDbDictionary
  3
ACAD_GROUP
350
1A34
  3
ACAD_MATERIAL
350
1A35
  3
ACAD_WIPEOUT_VARS
350
1A36
  3
ACAD_MLINESTYLE
350
1A37
  3
ACAD_IMAGE_VARS
350
1A38
  3
AcDbVariableDictionary
350
1A39
  3
ACAD_LAYOUT
350
1A3A
  0
DICTIONARY
  5
1A34
330
1A33
100
AcDbDictionary
  0
DICTIONARY
  5
1A35
330
1A33
100
AcDbDictionary
  0
WIPEOUTVARIABLES
  5
1A36
330
1A33
100
AcDbWipeoutVariables
 70
1
  0
DICTIONARY
  5
1A37
330
1A33
100
AcDbDictionary
  3
STANDARD
350
1422
  0
MLINESTYLE
  5
1422
330
1A37
100
AcDbMlineStyle
  2
STANDARD
 70
0
  3

 62
0
 51
90
 52
90
 71
2
 49
0.5
 62
256
  6
BYLAYER
 49
-0.5
 62
256
  6
BYLAYER
  0
DICTIONARY
  5
1A3A
100
AcDbDictionary
281
1
  3
Model
350
6
  0
LAYOUT
  5
6
102
{ACAD_REACTORS
330
1A3A
102
}
330
1A3A
100
AcDbPlotSettings
  1

  2
none_device
  4
none_device
  6

 40
0
 41
0
 42
0
 43
0
 44
257.18
 45
182.39
 46
0
 47
0
 48
0
 49
0
 70
11952
 72
1
 73
0
 74
1
 75
0
 76
0
 77
0
 78
0
140
0
141
0
142
1
143
1
147
1
148
0
149
0
100
AcDbLayout
  1
Model
 70
1
 71
1
 10
160.318364421285
 20
118.041348079311
 11
185.917367077255
 21
132.64038325737
 12
0
 22
0
 32
0
 14
160.318364421285
 24
118.041348079311
 34
0
 15
185.917367077255
 25
132.64038325737
 35
0
146
0
 13
0
 23
0
 33
0
 16
1
 26
0
 36
0
 17
0
 27
1
 37
0
 76
0
330
5
  0
RASTERVARIABLES
  5
1A38
330
1A33
100
AcDbRasterVariables
 90
0
 70
1
 71
0
 72
0
  0
DICTIONARY
  5
1A39
100
AcDbDictionary
281
1
  3
OLEFRAME
350
1A3B
  0
DICTIONARYVAR
  5
1A3B
330
1A39
100
DictionaryVariables
280
0
  1
0
  0
DICTIONARY
  5
1A3C
100
AcDbDictionary
280
1
  3
XINFO
360
1A3D
  0
XRECORD
  5
1A3D
102
{ACAD_REACTORS
330
1A3C
102
}
330
1A3C
100
AcDbXrecord
280
0
310
6300000001000E00
311
664AC73B20C60A45
  0
ENDSEC
  0
EOF
